<mxfile host="app.diagrams.net" modified="2022-03-04T10:46:58.206Z" agent="5.0 (Windows NT 10.0; Win64; x64) AppleWebKit/537.36 (KHTML, like Gecko) Chrome/98.0.4758.102 Safari/537.36" etag="rGJkQI7fSPfR-3ys0RAp" version="16.6.4" type="github">
  <diagram id="wn3XNuC2SBO90pHEKx3t" name="Page-1">
    <mxGraphModel dx="1038" dy="539" grid="1" gridSize="10" guides="1" tooltips="1" connect="1" arrows="1" fold="1" page="1" pageScale="1" pageWidth="827" pageHeight="1169" math="0" shadow="0">
      <root>
        <mxCell id="0" />
        <mxCell id="1" parent="0" />
        <mxCell id="G_DCx-D-8qYPFaXEgxUm-2" value="owners" style="html=1;overflow=block;blockSpacing=1;swimlane;resizeParent=1;resizeParentMax=0;resizeLast=0;collapsible=0;marginBottom=0;fontStyle=0;swimlaneFillColor=#ffffff;startSize=30;whiteSpace=wrap;fontSize=13;fontColor=#333333;align=center;fillColor=#ffffff;spacing=0;strokeColor=#333333;strokeOpacity=100;fillOpacity=100;rounded=1;absoluteArcSize=1;arcSize=12;strokeWidth=0.8;" vertex="1" parent="1">
          <mxGeometry x="255" y="120" width="150" height="126" as="geometry" />
        </mxCell>
        <mxCell id="G_DCx-D-8qYPFaXEgxUm-3" value="int" style="strokeColor=none;part=1;resizeHeight=0;verticalAlign=top;spacingLeft=4;spacingRight=4;overflow=hidden;rotatable=0;points=[[0,0.5],[1,0.5]];portConstraint=eastwest;html=1;swimlaneFillColor=#ffffff;whiteSpace=wrap;fontSize=13;fontColor=#333333;align=center;fillColor=none;strokeOpacity=100;fillOpacity=100;" vertex="1" parent="G_DCx-D-8qYPFaXEgxUm-2">
          <mxGeometry y="30" width="30" height="24" as="geometry" />
        </mxCell>
        <mxCell id="G_DCx-D-8qYPFaXEgxUm-4" value="id" style="shape=partialRectangle;top=0;right=0;bottom=0;part=1;resizeHeight=0;verticalAlign=top;spacingLeft=4;spacingRight=4;overflow=hidden;rotatable=0;points=[[0,0.5],[1,0.5]];portConstraint=eastwest;html=1;swimlaneFillColor=#ffffff;whiteSpace=wrap;fontSize=13;fontColor=#333333;align=center;fillColor=none;strokeOpacity=100;fillOpacity=100;" vertex="1" parent="G_DCx-D-8qYPFaXEgxUm-2">
          <mxGeometry x="30" y="30" width="120" height="24" as="geometry" />
        </mxCell>
        <mxCell id="G_DCx-D-8qYPFaXEgxUm-5" value="var" style="strokeColor=none;part=1;resizeHeight=0;verticalAlign=top;spacingLeft=4;spacingRight=4;overflow=hidden;rotatable=0;points=[[0,0.5],[1,0.5]];portConstraint=eastwest;html=1;swimlaneFillColor=#ffffff;whiteSpace=wrap;fontSize=13;fontColor=#333333;align=center;fillColor=none;strokeOpacity=100;fillOpacity=100;" vertex="1" parent="G_DCx-D-8qYPFaXEgxUm-2">
          <mxGeometry y="54" width="30" height="24" as="geometry" />
        </mxCell>
        <mxCell id="G_DCx-D-8qYPFaXEgxUm-6" value="name" style="shape=partialRectangle;top=0;right=0;bottom=0;part=1;resizeHeight=0;verticalAlign=top;spacingLeft=4;spacingRight=4;overflow=hidden;rotatable=0;points=[[0,0.5],[1,0.5]];portConstraint=eastwest;html=1;swimlaneFillColor=#ffffff;whiteSpace=wrap;fontSize=13;fontColor=#333333;align=center;fillColor=none;strokeOpacity=100;fillOpacity=100;" vertex="1" parent="G_DCx-D-8qYPFaXEgxUm-2">
          <mxGeometry x="30" y="54" width="120" height="24" as="geometry" />
        </mxCell>
        <mxCell id="G_DCx-D-8qYPFaXEgxUm-7" value="var" style="strokeColor=none;part=1;resizeHeight=0;verticalAlign=top;spacingLeft=4;spacingRight=4;overflow=hidden;rotatable=0;points=[[0,0.5],[1,0.5]];portConstraint=eastwest;html=1;swimlaneFillColor=#ffffff;whiteSpace=wrap;fontSize=13;fontColor=#333333;align=center;fillColor=none;strokeOpacity=100;fillOpacity=100;" vertex="1" parent="G_DCx-D-8qYPFaXEgxUm-2">
          <mxGeometry y="78" width="30" height="24" as="geometry" />
        </mxCell>
        <mxCell id="G_DCx-D-8qYPFaXEgxUm-8" value="email" style="shape=partialRectangle;top=0;right=0;bottom=0;part=1;resizeHeight=0;verticalAlign=top;spacingLeft=4;spacingRight=4;overflow=hidden;rotatable=0;points=[[0,0.5],[1,0.5]];portConstraint=eastwest;html=1;swimlaneFillColor=#ffffff;whiteSpace=wrap;fontSize=13;fontColor=#333333;align=center;fillColor=none;strokeOpacity=100;fillOpacity=100;" vertex="1" parent="G_DCx-D-8qYPFaXEgxUm-2">
          <mxGeometry x="30" y="78" width="120" height="24" as="geometry" />
        </mxCell>
        <mxCell id="G_DCx-D-8qYPFaXEgxUm-9" value="var" style="strokeColor=none;part=1;resizeHeight=0;verticalAlign=top;spacingLeft=4;spacingRight=4;overflow=hidden;rotatable=0;points=[[0,0.5],[1,0.5]];portConstraint=eastwest;html=1;swimlaneFillColor=#ffffff;whiteSpace=wrap;fontSize=13;align=center;fillColor=none;strokeOpacity=100;fillOpacity=100;" vertex="1" parent="G_DCx-D-8qYPFaXEgxUm-2">
          <mxGeometry y="102" width="30" height="24" as="geometry" />
        </mxCell>
        <mxCell id="G_DCx-D-8qYPFaXEgxUm-10" value="phone" style="shape=partialRectangle;top=0;right=0;bottom=0;part=1;resizeHeight=0;verticalAlign=top;spacingLeft=4;spacingRight=4;overflow=hidden;rotatable=0;points=[[0,0.5],[1,0.5]];portConstraint=eastwest;html=1;swimlaneFillColor=#ffffff;whiteSpace=wrap;fontSize=13;align=center;fillColor=none;strokeOpacity=100;fillOpacity=100;" vertex="1" parent="G_DCx-D-8qYPFaXEgxUm-2">
          <mxGeometry x="30" y="102" width="120" height="24" as="geometry" />
        </mxCell>
        <mxCell id="G_DCx-D-8qYPFaXEgxUm-11" value="users" style="html=1;overflow=block;blockSpacing=1;swimlane;resizeParent=1;resizeParentMax=0;resizeLast=0;collapsible=0;marginBottom=0;fontStyle=0;swimlaneFillColor=#ffffff;startSize=30;whiteSpace=wrap;fontSize=13;fontColor=#333333;align=center;fillColor=#ffffff;spacing=0;strokeColor=#333333;strokeOpacity=100;fillOpacity=100;rounded=1;absoluteArcSize=1;arcSize=12;strokeWidth=0.8;" vertex="1" parent="1">
          <mxGeometry x="765" y="120" width="150" height="126" as="geometry" />
        </mxCell>
        <mxCell id="G_DCx-D-8qYPFaXEgxUm-12" value="int" style="strokeColor=none;part=1;resizeHeight=0;verticalAlign=top;spacingLeft=4;spacingRight=4;overflow=hidden;rotatable=0;points=[[0,0.5],[1,0.5]];portConstraint=eastwest;html=1;swimlaneFillColor=#ffffff;whiteSpace=wrap;fontSize=13;fontColor=#333333;align=center;fillColor=none;strokeOpacity=100;fillOpacity=100;" vertex="1" parent="G_DCx-D-8qYPFaXEgxUm-11">
          <mxGeometry y="30" width="30" height="24" as="geometry" />
        </mxCell>
        <mxCell id="G_DCx-D-8qYPFaXEgxUm-13" value="id" style="shape=partialRectangle;top=0;right=0;bottom=0;part=1;resizeHeight=0;verticalAlign=top;spacingLeft=4;spacingRight=4;overflow=hidden;rotatable=0;points=[[0,0.5],[1,0.5]];portConstraint=eastwest;html=1;swimlaneFillColor=#ffffff;whiteSpace=wrap;fontSize=13;fontColor=#333333;align=center;fillColor=none;strokeOpacity=100;fillOpacity=100;" vertex="1" parent="G_DCx-D-8qYPFaXEgxUm-11">
          <mxGeometry x="30" y="30" width="120" height="24" as="geometry" />
        </mxCell>
        <mxCell id="G_DCx-D-8qYPFaXEgxUm-14" value="var" style="strokeColor=none;part=1;resizeHeight=0;verticalAlign=top;spacingLeft=4;spacingRight=4;overflow=hidden;rotatable=0;points=[[0,0.5],[1,0.5]];portConstraint=eastwest;html=1;swimlaneFillColor=#ffffff;whiteSpace=wrap;fontSize=13;fontColor=#333333;align=center;fillColor=none;strokeOpacity=100;fillOpacity=100;" vertex="1" parent="G_DCx-D-8qYPFaXEgxUm-11">
          <mxGeometry y="54" width="30" height="24" as="geometry" />
        </mxCell>
        <mxCell id="G_DCx-D-8qYPFaXEgxUm-15" value="name" style="shape=partialRectangle;top=0;right=0;bottom=0;part=1;resizeHeight=0;verticalAlign=top;spacingLeft=4;spacingRight=4;overflow=hidden;rotatable=0;points=[[0,0.5],[1,0.5]];portConstraint=eastwest;html=1;swimlaneFillColor=#ffffff;whiteSpace=wrap;fontSize=13;fontColor=#333333;align=center;fillColor=none;strokeOpacity=100;fillOpacity=100;" vertex="1" parent="G_DCx-D-8qYPFaXEgxUm-11">
          <mxGeometry x="30" y="54" width="120" height="24" as="geometry" />
        </mxCell>
        <mxCell id="G_DCx-D-8qYPFaXEgxUm-16" value="var" style="strokeColor=none;part=1;resizeHeight=0;verticalAlign=top;spacingLeft=4;spacingRight=4;overflow=hidden;rotatable=0;points=[[0,0.5],[1,0.5]];portConstraint=eastwest;html=1;swimlaneFillColor=#ffffff;whiteSpace=wrap;fontSize=13;fontColor=#333333;align=center;fillColor=none;strokeOpacity=100;fillOpacity=100;" vertex="1" parent="G_DCx-D-8qYPFaXEgxUm-11">
          <mxGeometry y="78" width="30" height="24" as="geometry" />
        </mxCell>
        <mxCell id="G_DCx-D-8qYPFaXEgxUm-17" value="email" style="shape=partialRectangle;top=0;right=0;bottom=0;part=1;resizeHeight=0;verticalAlign=top;spacingLeft=4;spacingRight=4;overflow=hidden;rotatable=0;points=[[0,0.5],[1,0.5]];portConstraint=eastwest;html=1;swimlaneFillColor=#ffffff;whiteSpace=wrap;fontSize=13;fontColor=#333333;align=center;fillColor=none;strokeOpacity=100;fillOpacity=100;" vertex="1" parent="G_DCx-D-8qYPFaXEgxUm-11">
          <mxGeometry x="30" y="78" width="120" height="24" as="geometry" />
        </mxCell>
        <mxCell id="G_DCx-D-8qYPFaXEgxUm-18" value="var" style="strokeColor=none;part=1;resizeHeight=0;verticalAlign=top;spacingLeft=4;spacingRight=4;overflow=hidden;rotatable=0;points=[[0,0.5],[1,0.5]];portConstraint=eastwest;html=1;swimlaneFillColor=#ffffff;whiteSpace=wrap;fontSize=13;align=center;fillColor=none;strokeOpacity=100;fillOpacity=100;" vertex="1" parent="G_DCx-D-8qYPFaXEgxUm-11">
          <mxGeometry y="102" width="30" height="24" as="geometry" />
        </mxCell>
        <mxCell id="G_DCx-D-8qYPFaXEgxUm-19" value="phone" style="shape=partialRectangle;top=0;right=0;bottom=0;part=1;resizeHeight=0;verticalAlign=top;spacingLeft=4;spacingRight=4;overflow=hidden;rotatable=0;points=[[0,0.5],[1,0.5]];portConstraint=eastwest;html=1;swimlaneFillColor=#ffffff;whiteSpace=wrap;fontSize=13;align=center;fillColor=none;strokeOpacity=100;fillOpacity=100;" vertex="1" parent="G_DCx-D-8qYPFaXEgxUm-11">
          <mxGeometry x="30" y="102" width="120" height="24" as="geometry" />
        </mxCell>
        <mxCell id="G_DCx-D-8qYPFaXEgxUm-20" value="owner_user_class" style="html=1;overflow=block;blockSpacing=1;swimlane;resizeParent=1;resizeParentMax=0;resizeLast=0;collapsible=0;marginBottom=0;fontStyle=0;swimlaneFillColor=#ffffff;startSize=30;whiteSpace=wrap;fontSize=13;fontColor=#333333;align=center;fillColor=#ffffff;spacing=0;strokeColor=#333333;strokeOpacity=100;fillOpacity=100;rounded=1;absoluteArcSize=1;arcSize=12;strokeWidth=0.8;" vertex="1" parent="1">
          <mxGeometry x="510" y="120" width="150" height="126" as="geometry" />
        </mxCell>
        <mxCell id="G_DCx-D-8qYPFaXEgxUm-21" value="int" style="strokeColor=none;part=1;resizeHeight=0;verticalAlign=top;spacingLeft=4;spacingRight=4;overflow=hidden;rotatable=0;points=[[0,0.5],[1,0.5]];portConstraint=eastwest;html=1;swimlaneFillColor=#ffffff;whiteSpace=wrap;fontSize=13;fontColor=#333333;align=center;fillColor=none;strokeOpacity=100;fillOpacity=100;" vertex="1" parent="G_DCx-D-8qYPFaXEgxUm-20">
          <mxGeometry y="30" width="30" height="24" as="geometry" />
        </mxCell>
        <mxCell id="G_DCx-D-8qYPFaXEgxUm-22" value="id" style="shape=partialRectangle;top=0;right=0;bottom=0;part=1;resizeHeight=0;verticalAlign=top;spacingLeft=4;spacingRight=4;overflow=hidden;rotatable=0;points=[[0,0.5],[1,0.5]];portConstraint=eastwest;html=1;swimlaneFillColor=#ffffff;whiteSpace=wrap;fontSize=13;fontColor=#333333;align=center;fillColor=none;strokeOpacity=100;fillOpacity=100;" vertex="1" parent="G_DCx-D-8qYPFaXEgxUm-20">
          <mxGeometry x="30" y="30" width="120" height="24" as="geometry" />
        </mxCell>
        <mxCell id="G_DCx-D-8qYPFaXEgxUm-23" value="int" style="strokeColor=none;part=1;resizeHeight=0;verticalAlign=top;spacingLeft=4;spacingRight=4;overflow=hidden;rotatable=0;points=[[0,0.5],[1,0.5]];portConstraint=eastwest;html=1;swimlaneFillColor=#ffffff;whiteSpace=wrap;fontSize=13;fontColor=#333333;align=center;fillColor=none;strokeOpacity=100;fillOpacity=100;" vertex="1" parent="G_DCx-D-8qYPFaXEgxUm-20">
          <mxGeometry y="54" width="30" height="24" as="geometry" />
        </mxCell>
        <mxCell id="G_DCx-D-8qYPFaXEgxUm-24" value="owner_id" style="shape=partialRectangle;top=0;right=0;bottom=0;part=1;resizeHeight=0;verticalAlign=top;spacingLeft=4;spacingRight=4;overflow=hidden;rotatable=0;points=[[0,0.5],[1,0.5]];portConstraint=eastwest;html=1;swimlaneFillColor=#ffffff;whiteSpace=wrap;fontSize=13;fontColor=#333333;align=center;fillColor=none;strokeOpacity=100;fillOpacity=100;" vertex="1" parent="G_DCx-D-8qYPFaXEgxUm-20">
          <mxGeometry x="30" y="54" width="120" height="24" as="geometry" />
        </mxCell>
        <mxCell id="G_DCx-D-8qYPFaXEgxUm-25" value="int" style="strokeColor=none;part=1;resizeHeight=0;verticalAlign=top;spacingLeft=4;spacingRight=4;overflow=hidden;rotatable=0;points=[[0,0.5],[1,0.5]];portConstraint=eastwest;html=1;swimlaneFillColor=#ffffff;whiteSpace=wrap;fontSize=13;fontColor=#333333;align=center;fillColor=none;strokeOpacity=100;fillOpacity=100;" vertex="1" parent="G_DCx-D-8qYPFaXEgxUm-20">
          <mxGeometry y="78" width="30" height="24" as="geometry" />
        </mxCell>
        <mxCell id="G_DCx-D-8qYPFaXEgxUm-26" value="user_id" style="shape=partialRectangle;top=0;right=0;bottom=0;part=1;resizeHeight=0;verticalAlign=top;spacingLeft=4;spacingRight=4;overflow=hidden;rotatable=0;points=[[0,0.5],[1,0.5]];portConstraint=eastwest;html=1;swimlaneFillColor=#ffffff;whiteSpace=wrap;fontSize=13;fontColor=#333333;align=center;fillColor=none;strokeOpacity=100;fillOpacity=100;" vertex="1" parent="G_DCx-D-8qYPFaXEgxUm-20">
          <mxGeometry x="30" y="78" width="120" height="24" as="geometry" />
        </mxCell>
        <mxCell id="G_DCx-D-8qYPFaXEgxUm-27" value="int" style="strokeColor=none;part=1;resizeHeight=0;verticalAlign=top;spacingLeft=4;spacingRight=4;overflow=hidden;rotatable=0;points=[[0,0.5],[1,0.5]];portConstraint=eastwest;html=1;swimlaneFillColor=#ffffff;whiteSpace=wrap;fontSize=13;align=center;fillColor=none;strokeOpacity=100;fillOpacity=100;" vertex="1" parent="G_DCx-D-8qYPFaXEgxUm-20">
          <mxGeometry y="102" width="30" height="24" as="geometry" />
        </mxCell>
        <mxCell id="G_DCx-D-8qYPFaXEgxUm-28" value="class_id" style="shape=partialRectangle;top=0;right=0;bottom=0;part=1;resizeHeight=0;verticalAlign=top;spacingLeft=4;spacingRight=4;overflow=hidden;rotatable=0;points=[[0,0.5],[1,0.5]];portConstraint=eastwest;html=1;swimlaneFillColor=#ffffff;whiteSpace=wrap;fontSize=13;align=center;fillColor=none;strokeOpacity=100;fillOpacity=100;" vertex="1" parent="G_DCx-D-8qYPFaXEgxUm-20">
          <mxGeometry x="30" y="102" width="120" height="24" as="geometry" />
        </mxCell>
        <mxCell id="G_DCx-D-8qYPFaXEgxUm-29" value="class" style="html=1;overflow=block;blockSpacing=1;swimlane;resizeParent=1;resizeParentMax=0;resizeLast=0;collapsible=0;marginBottom=0;fontStyle=0;swimlaneFillColor=#ffffff;startSize=30;whiteSpace=wrap;fontSize=13;fontColor=#333333;align=center;fillColor=#ffffff;spacing=0;strokeColor=#333333;strokeOpacity=100;fillOpacity=100;rounded=1;absoluteArcSize=1;arcSize=12;strokeWidth=0.8;" vertex="1" parent="1">
          <mxGeometry x="510" y="300" width="150" height="126" as="geometry" />
        </mxCell>
        <mxCell id="G_DCx-D-8qYPFaXEgxUm-30" value="int" style="strokeColor=none;part=1;resizeHeight=0;verticalAlign=top;spacingLeft=4;spacingRight=4;overflow=hidden;rotatable=0;points=[[0,0.5],[1,0.5]];portConstraint=eastwest;html=1;swimlaneFillColor=#ffffff;whiteSpace=wrap;fontSize=13;fontColor=#333333;align=center;fillColor=none;strokeOpacity=100;fillOpacity=100;" vertex="1" parent="G_DCx-D-8qYPFaXEgxUm-29">
          <mxGeometry y="30" width="30" height="24" as="geometry" />
        </mxCell>
        <mxCell id="G_DCx-D-8qYPFaXEgxUm-31" value="id" style="shape=partialRectangle;top=0;right=0;bottom=0;part=1;resizeHeight=0;verticalAlign=top;spacingLeft=4;spacingRight=4;overflow=hidden;rotatable=0;points=[[0,0.5],[1,0.5]];portConstraint=eastwest;html=1;swimlaneFillColor=#ffffff;whiteSpace=wrap;fontSize=13;fontColor=#333333;align=center;fillColor=none;strokeOpacity=100;fillOpacity=100;" vertex="1" parent="G_DCx-D-8qYPFaXEgxUm-29">
          <mxGeometry x="30" y="30" width="120" height="24" as="geometry" />
        </mxCell>
        <mxCell id="G_DCx-D-8qYPFaXEgxUm-32" value="var" style="strokeColor=none;part=1;resizeHeight=0;verticalAlign=top;spacingLeft=4;spacingRight=4;overflow=hidden;rotatable=0;points=[[0,0.5],[1,0.5]];portConstraint=eastwest;html=1;swimlaneFillColor=#ffffff;whiteSpace=wrap;fontSize=13;fontColor=#333333;align=center;fillColor=none;strokeOpacity=100;fillOpacity=100;" vertex="1" parent="G_DCx-D-8qYPFaXEgxUm-29">
          <mxGeometry y="54" width="30" height="24" as="geometry" />
        </mxCell>
        <mxCell id="G_DCx-D-8qYPFaXEgxUm-33" value="name" style="shape=partialRectangle;top=0;right=0;bottom=0;part=1;resizeHeight=0;verticalAlign=top;spacingLeft=4;spacingRight=4;overflow=hidden;rotatable=0;points=[[0,0.5],[1,0.5]];portConstraint=eastwest;html=1;swimlaneFillColor=#ffffff;whiteSpace=wrap;fontSize=13;fontColor=#333333;align=center;fillColor=none;strokeOpacity=100;fillOpacity=100;" vertex="1" parent="G_DCx-D-8qYPFaXEgxUm-29">
          <mxGeometry x="30" y="54" width="120" height="24" as="geometry" />
        </mxCell>
        <mxCell id="G_DCx-D-8qYPFaXEgxUm-34" value="var" style="strokeColor=none;part=1;resizeHeight=0;verticalAlign=top;spacingLeft=4;spacingRight=4;overflow=hidden;rotatable=0;points=[[0,0.5],[1,0.5]];portConstraint=eastwest;html=1;swimlaneFillColor=#ffffff;whiteSpace=wrap;fontSize=13;fontColor=#333333;align=center;fillColor=none;strokeOpacity=100;fillOpacity=100;" vertex="1" parent="G_DCx-D-8qYPFaXEgxUm-29">
          <mxGeometry y="78" width="30" height="24" as="geometry" />
        </mxCell>
        <mxCell id="G_DCx-D-8qYPFaXEgxUm-35" value="desciption" style="shape=partialRectangle;top=0;right=0;bottom=0;part=1;resizeHeight=0;verticalAlign=top;spacingLeft=4;spacingRight=4;overflow=hidden;rotatable=0;points=[[0,0.5],[1,0.5]];portConstraint=eastwest;html=1;swimlaneFillColor=#ffffff;whiteSpace=wrap;fontSize=13;fontColor=#333333;align=center;fillColor=none;strokeOpacity=100;fillOpacity=100;" vertex="1" parent="G_DCx-D-8qYPFaXEgxUm-29">
          <mxGeometry x="30" y="78" width="120" height="24" as="geometry" />
        </mxCell>
        <mxCell id="G_DCx-D-8qYPFaXEgxUm-36" value="var" style="strokeColor=none;part=1;resizeHeight=0;verticalAlign=top;spacingLeft=4;spacingRight=4;overflow=hidden;rotatable=0;points=[[0,0.5],[1,0.5]];portConstraint=eastwest;html=1;swimlaneFillColor=#ffffff;whiteSpace=wrap;fontSize=13;align=center;fillColor=none;strokeOpacity=100;fillOpacity=100;" vertex="1" parent="G_DCx-D-8qYPFaXEgxUm-29">
          <mxGeometry y="102" width="30" height="24" as="geometry" />
        </mxCell>
        <mxCell id="G_DCx-D-8qYPFaXEgxUm-37" value="class_code" style="shape=partialRectangle;top=0;right=0;bottom=0;part=1;resizeHeight=0;verticalAlign=top;spacingLeft=4;spacingRight=4;overflow=hidden;rotatable=0;points=[[0,0.5],[1,0.5]];portConstraint=eastwest;html=1;swimlaneFillColor=#ffffff;whiteSpace=wrap;fontSize=13;align=center;fillColor=none;strokeOpacity=100;fillOpacity=100;" vertex="1" parent="G_DCx-D-8qYPFaXEgxUm-29">
          <mxGeometry x="30" y="102" width="120" height="24" as="geometry" />
        </mxCell>
        <UserObject label="" lucidchartObjectId="x48W9jhTajRW" id="G_DCx-D-8qYPFaXEgxUm-38">
          <mxCell style="html=1;jettySize=18;whiteSpace=wrap;fontSize=13;strokeColor=#333333;strokeOpacity=100;strokeWidth=0.8;rounded=1;arcSize=24;edgeStyle=orthogonalEdgeStyle;startArrow=ERmany;startSize=10;endArrow=ERmany;endSize=10;exitX=1.003;exitY=0.524;exitPerimeter=0;entryX=-0.002;entryY=0.524;entryPerimeter=0;" edge="1" parent="1" source="G_DCx-D-8qYPFaXEgxUm-2" target="G_DCx-D-8qYPFaXEgxUm-20">
            <mxGeometry width="100" height="100" relative="1" as="geometry">
              <Array as="points" />
            </mxGeometry>
          </mxCell>
        </UserObject>
        <UserObject label="" lucidchartObjectId="P48WJ-SzS1jS" id="G_DCx-D-8qYPFaXEgxUm-39">
          <mxCell style="html=1;jettySize=18;whiteSpace=wrap;fontSize=13;strokeColor=#333333;strokeOpacity=100;strokeWidth=0.8;rounded=1;arcSize=24;edgeStyle=orthogonalEdgeStyle;startArrow=ERmany;startSize=10;endArrow=ERmany;endSize=10;exitX=1.003;exitY=0.524;exitPerimeter=0;entryX=-0.002;entryY=0.524;entryPerimeter=0;" edge="1" parent="1" source="G_DCx-D-8qYPFaXEgxUm-20" target="G_DCx-D-8qYPFaXEgxUm-11">
            <mxGeometry width="100" height="100" relative="1" as="geometry">
              <Array as="points" />
            </mxGeometry>
          </mxCell>
        </UserObject>
        <UserObject label="" lucidchartObjectId="U48WN-ERTIho" id="G_DCx-D-8qYPFaXEgxUm-40">
          <mxCell style="html=1;jettySize=18;whiteSpace=wrap;fontSize=13;strokeColor=#333333;strokeOpacity=100;strokeWidth=0.8;rounded=1;arcSize=24;edgeStyle=orthogonalEdgeStyle;startArrow=ERmany;startSize=10;endArrow=ERmany;endSize=10;exitX=0.5;exitY=1.003;exitPerimeter=0;entryX=0.5;entryY=-0.003;entryPerimeter=0;" edge="1" parent="1" source="G_DCx-D-8qYPFaXEgxUm-20" target="G_DCx-D-8qYPFaXEgxUm-29">
            <mxGeometry width="100" height="100" relative="1" as="geometry">
              <Array as="points" />
            </mxGeometry>
          </mxCell>
        </UserObject>
        <mxCell id="G_DCx-D-8qYPFaXEgxUm-41" value="roll_call" style="html=1;overflow=block;blockSpacing=1;swimlane;resizeParent=1;resizeParentMax=0;resizeLast=0;collapsible=0;marginBottom=0;fontStyle=0;swimlaneFillColor=#ffffff;startSize=30;whiteSpace=wrap;fontSize=13;fontColor=#333333;align=center;fillColor=#ffffff;spacing=0;strokeColor=#333333;strokeOpacity=100;fillOpacity=100;rounded=1;absoluteArcSize=1;arcSize=12;strokeWidth=0.8;" vertex="1" parent="1">
          <mxGeometry x="1035" y="120" width="150" height="174" as="geometry" />
        </mxCell>
        <mxCell id="G_DCx-D-8qYPFaXEgxUm-42" value="int" style="strokeColor=none;part=1;resizeHeight=0;verticalAlign=top;spacingLeft=4;spacingRight=4;overflow=hidden;rotatable=0;points=[[0,0.5],[1,0.5]];portConstraint=eastwest;html=1;swimlaneFillColor=#ffffff;whiteSpace=wrap;fontSize=13;fontColor=#333333;align=center;fillColor=none;strokeOpacity=100;fillOpacity=100;" vertex="1" parent="G_DCx-D-8qYPFaXEgxUm-41">
          <mxGeometry y="30" width="30" height="24" as="geometry" />
        </mxCell>
        <mxCell id="G_DCx-D-8qYPFaXEgxUm-43" value="id" style="shape=partialRectangle;top=0;right=0;bottom=0;part=1;resizeHeight=0;verticalAlign=top;spacingLeft=4;spacingRight=4;overflow=hidden;rotatable=0;points=[[0,0.5],[1,0.5]];portConstraint=eastwest;html=1;swimlaneFillColor=#ffffff;whiteSpace=wrap;fontSize=13;fontColor=#333333;align=center;fillColor=none;strokeOpacity=100;fillOpacity=100;" vertex="1" parent="G_DCx-D-8qYPFaXEgxUm-41">
          <mxGeometry x="30" y="30" width="120" height="24" as="geometry" />
        </mxCell>
        <mxCell id="G_DCx-D-8qYPFaXEgxUm-44" value="int" style="strokeColor=none;part=1;resizeHeight=0;verticalAlign=top;spacingLeft=4;spacingRight=4;overflow=hidden;rotatable=0;points=[[0,0.5],[1,0.5]];portConstraint=eastwest;html=1;swimlaneFillColor=#ffffff;whiteSpace=wrap;fontSize=13;fontColor=#333333;align=center;fillColor=none;strokeOpacity=100;fillOpacity=100;" vertex="1" parent="G_DCx-D-8qYPFaXEgxUm-41">
          <mxGeometry y="54" width="30" height="24" as="geometry" />
        </mxCell>
        <mxCell id="G_DCx-D-8qYPFaXEgxUm-45" value="class_id" style="shape=partialRectangle;top=0;right=0;bottom=0;part=1;resizeHeight=0;verticalAlign=top;spacingLeft=4;spacingRight=4;overflow=hidden;rotatable=0;points=[[0,0.5],[1,0.5]];portConstraint=eastwest;html=1;swimlaneFillColor=#ffffff;whiteSpace=wrap;fontSize=13;fontColor=#333333;align=center;fillColor=none;strokeOpacity=100;fillOpacity=100;" vertex="1" parent="G_DCx-D-8qYPFaXEgxUm-41">
          <mxGeometry x="30" y="54" width="120" height="24" as="geometry" />
        </mxCell>
        <mxCell id="G_DCx-D-8qYPFaXEgxUm-46" value="int" style="strokeColor=none;part=1;resizeHeight=0;verticalAlign=top;spacingLeft=4;spacingRight=4;overflow=hidden;rotatable=0;points=[[0,0.5],[1,0.5]];portConstraint=eastwest;html=1;swimlaneFillColor=#ffffff;whiteSpace=wrap;fontSize=13;fontColor=#333333;align=center;fillColor=none;strokeOpacity=100;fillOpacity=100;" vertex="1" parent="G_DCx-D-8qYPFaXEgxUm-41">
          <mxGeometry y="78" width="30" height="24" as="geometry" />
        </mxCell>
        <mxCell id="G_DCx-D-8qYPFaXEgxUm-47" value="user_id" style="shape=partialRectangle;top=0;right=0;bottom=0;part=1;resizeHeight=0;verticalAlign=top;spacingLeft=4;spacingRight=4;overflow=hidden;rotatable=0;points=[[0,0.5],[1,0.5]];portConstraint=eastwest;html=1;swimlaneFillColor=#ffffff;whiteSpace=wrap;fontSize=13;fontColor=#333333;align=center;fillColor=none;strokeOpacity=100;fillOpacity=100;" vertex="1" parent="G_DCx-D-8qYPFaXEgxUm-41">
          <mxGeometry x="30" y="78" width="120" height="24" as="geometry" />
        </mxCell>
        <mxCell id="G_DCx-D-8qYPFaXEgxUm-48" value="int" style="strokeColor=none;part=1;resizeHeight=0;verticalAlign=top;spacingLeft=4;spacingRight=4;overflow=hidden;rotatable=0;points=[[0,0.5],[1,0.5]];portConstraint=eastwest;html=1;swimlaneFillColor=#ffffff;whiteSpace=wrap;fontSize=13;align=center;fillColor=none;strokeOpacity=100;fillOpacity=100;" vertex="1" parent="G_DCx-D-8qYPFaXEgxUm-41">
          <mxGeometry y="102" width="30" height="24" as="geometry" />
        </mxCell>
        <mxCell id="G_DCx-D-8qYPFaXEgxUm-49" value="is_checked" style="shape=partialRectangle;top=0;right=0;bottom=0;part=1;resizeHeight=0;verticalAlign=top;spacingLeft=4;spacingRight=4;overflow=hidden;rotatable=0;points=[[0,0.5],[1,0.5]];portConstraint=eastwest;html=1;swimlaneFillColor=#ffffff;whiteSpace=wrap;fontSize=13;align=center;fillColor=none;strokeOpacity=100;fillOpacity=100;" vertex="1" parent="G_DCx-D-8qYPFaXEgxUm-41">
          <mxGeometry x="30" y="102" width="120" height="24" as="geometry" />
        </mxCell>
        <mxCell id="G_DCx-D-8qYPFaXEgxUm-50" value="var" style="strokeColor=none;part=1;resizeHeight=0;verticalAlign=top;spacingLeft=4;spacingRight=4;overflow=hidden;rotatable=0;points=[[0,0.5],[1,0.5]];portConstraint=eastwest;html=1;swimlaneFillColor=#ffffff;whiteSpace=wrap;fontSize=13;align=center;fillColor=none;strokeOpacity=100;fillOpacity=100;" vertex="1" parent="G_DCx-D-8qYPFaXEgxUm-41">
          <mxGeometry y="126" width="30" height="24" as="geometry" />
        </mxCell>
        <mxCell id="G_DCx-D-8qYPFaXEgxUm-51" value="note" style="shape=partialRectangle;top=0;right=0;bottom=0;part=1;resizeHeight=0;verticalAlign=top;spacingLeft=4;spacingRight=4;overflow=hidden;rotatable=0;points=[[0,0.5],[1,0.5]];portConstraint=eastwest;html=1;swimlaneFillColor=#ffffff;whiteSpace=wrap;fontSize=13;align=center;fillColor=none;strokeOpacity=100;fillOpacity=100;" vertex="1" parent="G_DCx-D-8qYPFaXEgxUm-41">
          <mxGeometry x="30" y="126" width="120" height="24" as="geometry" />
        </mxCell>
        <mxCell id="G_DCx-D-8qYPFaXEgxUm-52" value="time" style="strokeColor=none;part=1;resizeHeight=0;verticalAlign=top;spacingLeft=4;spacingRight=4;overflow=hidden;rotatable=0;points=[[0,0.5],[1,0.5]];portConstraint=eastwest;html=1;swimlaneFillColor=#ffffff;whiteSpace=wrap;fontSize=13;align=center;fillColor=none;strokeOpacity=100;fillOpacity=100;" vertex="1" parent="G_DCx-D-8qYPFaXEgxUm-41">
          <mxGeometry y="150" width="30" height="24" as="geometry" />
        </mxCell>
        <mxCell id="G_DCx-D-8qYPFaXEgxUm-53" value="date" style="shape=partialRectangle;top=0;right=0;bottom=0;part=1;resizeHeight=0;verticalAlign=top;spacingLeft=4;spacingRight=4;overflow=hidden;rotatable=0;points=[[0,0.5],[1,0.5]];portConstraint=eastwest;html=1;swimlaneFillColor=#ffffff;whiteSpace=wrap;fontSize=13;align=center;fillColor=none;strokeOpacity=100;fillOpacity=100;" vertex="1" parent="G_DCx-D-8qYPFaXEgxUm-41">
          <mxGeometry x="30" y="150" width="120" height="24" as="geometry" />
        </mxCell>
        <mxCell id="G_DCx-D-8qYPFaXEgxUm-54" value="day_off" style="html=1;overflow=block;blockSpacing=1;swimlane;resizeParent=1;resizeParentMax=0;resizeLast=0;collapsible=0;marginBottom=0;fontStyle=0;swimlaneFillColor=#ffffff;startSize=30;whiteSpace=wrap;fontSize=13;fontColor=#333333;align=center;fillColor=#ffffff;spacing=0;strokeColor=#333333;strokeOpacity=100;fillOpacity=100;rounded=1;absoluteArcSize=1;arcSize=12;strokeWidth=0.8;" vertex="1" parent="1">
          <mxGeometry x="1035" y="315" width="150" height="246" as="geometry" />
        </mxCell>
        <mxCell id="G_DCx-D-8qYPFaXEgxUm-55" value="int" style="strokeColor=none;part=1;resizeHeight=0;verticalAlign=top;spacingLeft=4;spacingRight=4;overflow=hidden;rotatable=0;points=[[0,0.5],[1,0.5]];portConstraint=eastwest;html=1;swimlaneFillColor=#ffffff;whiteSpace=wrap;fontSize=13;fontColor=#333333;align=center;fillColor=none;strokeOpacity=100;fillOpacity=100;" vertex="1" parent="G_DCx-D-8qYPFaXEgxUm-54">
          <mxGeometry y="30" width="30" height="24" as="geometry" />
        </mxCell>
        <mxCell id="G_DCx-D-8qYPFaXEgxUm-56" value="id" style="shape=partialRectangle;top=0;right=0;bottom=0;part=1;resizeHeight=0;verticalAlign=top;spacingLeft=4;spacingRight=4;overflow=hidden;rotatable=0;points=[[0,0.5],[1,0.5]];portConstraint=eastwest;html=1;swimlaneFillColor=#ffffff;whiteSpace=wrap;fontSize=13;fontColor=#333333;align=center;fillColor=none;strokeOpacity=100;fillOpacity=100;" vertex="1" parent="G_DCx-D-8qYPFaXEgxUm-54">
          <mxGeometry x="30" y="30" width="120" height="24" as="geometry" />
        </mxCell>
        <mxCell id="G_DCx-D-8qYPFaXEgxUm-57" value="int" style="strokeColor=none;part=1;resizeHeight=0;verticalAlign=top;spacingLeft=4;spacingRight=4;overflow=hidden;rotatable=0;points=[[0,0.5],[1,0.5]];portConstraint=eastwest;html=1;swimlaneFillColor=#ffffff;whiteSpace=wrap;fontSize=13;fontColor=#333333;align=center;fillColor=none;strokeOpacity=100;fillOpacity=100;" vertex="1" parent="G_DCx-D-8qYPFaXEgxUm-54">
          <mxGeometry y="54" width="30" height="24" as="geometry" />
        </mxCell>
        <mxCell id="G_DCx-D-8qYPFaXEgxUm-58" value="class_id" style="shape=partialRectangle;top=0;right=0;bottom=0;part=1;resizeHeight=0;verticalAlign=top;spacingLeft=4;spacingRight=4;overflow=hidden;rotatable=0;points=[[0,0.5],[1,0.5]];portConstraint=eastwest;html=1;swimlaneFillColor=#ffffff;whiteSpace=wrap;fontSize=13;fontColor=#333333;align=center;fillColor=none;strokeOpacity=100;fillOpacity=100;" vertex="1" parent="G_DCx-D-8qYPFaXEgxUm-54">
          <mxGeometry x="30" y="54" width="120" height="24" as="geometry" />
        </mxCell>
        <mxCell id="G_DCx-D-8qYPFaXEgxUm-59" value="int" style="strokeColor=none;part=1;resizeHeight=0;verticalAlign=top;spacingLeft=4;spacingRight=4;overflow=hidden;rotatable=0;points=[[0,0.5],[1,0.5]];portConstraint=eastwest;html=1;swimlaneFillColor=#ffffff;whiteSpace=wrap;fontSize=13;align=center;fillColor=none;strokeOpacity=100;fillOpacity=100;" vertex="1" parent="G_DCx-D-8qYPFaXEgxUm-54">
          <mxGeometry y="78" width="30" height="24" as="geometry" />
        </mxCell>
        <mxCell id="G_DCx-D-8qYPFaXEgxUm-60" value="ower_id" style="shape=partialRectangle;top=0;right=0;bottom=0;part=1;resizeHeight=0;verticalAlign=top;spacingLeft=4;spacingRight=4;overflow=hidden;rotatable=0;points=[[0,0.5],[1,0.5]];portConstraint=eastwest;html=1;swimlaneFillColor=#ffffff;whiteSpace=wrap;fontSize=13;align=center;fillColor=none;strokeOpacity=100;fillOpacity=100;" vertex="1" parent="G_DCx-D-8qYPFaXEgxUm-54">
          <mxGeometry x="30" y="78" width="120" height="24" as="geometry" />
        </mxCell>
        <mxCell id="G_DCx-D-8qYPFaXEgxUm-61" value="int" style="strokeColor=none;part=1;resizeHeight=0;verticalAlign=top;spacingLeft=4;spacingRight=4;overflow=hidden;rotatable=0;points=[[0,0.5],[1,0.5]];portConstraint=eastwest;html=1;swimlaneFillColor=#ffffff;whiteSpace=wrap;fontSize=13;fontColor=#333333;align=center;fillColor=none;strokeOpacity=100;fillOpacity=100;" vertex="1" parent="G_DCx-D-8qYPFaXEgxUm-54">
          <mxGeometry y="102" width="30" height="24" as="geometry" />
        </mxCell>
        <mxCell id="G_DCx-D-8qYPFaXEgxUm-62" value="user_id" style="shape=partialRectangle;top=0;right=0;bottom=0;part=1;resizeHeight=0;verticalAlign=top;spacingLeft=4;spacingRight=4;overflow=hidden;rotatable=0;points=[[0,0.5],[1,0.5]];portConstraint=eastwest;html=1;swimlaneFillColor=#ffffff;whiteSpace=wrap;fontSize=13;fontColor=#333333;align=center;fillColor=none;strokeOpacity=100;fillOpacity=100;" vertex="1" parent="G_DCx-D-8qYPFaXEgxUm-54">
          <mxGeometry x="30" y="102" width="120" height="24" as="geometry" />
        </mxCell>
        <mxCell id="G_DCx-D-8qYPFaXEgxUm-63" value="time" style="strokeColor=none;part=1;resizeHeight=0;verticalAlign=top;spacingLeft=4;spacingRight=4;overflow=hidden;rotatable=0;points=[[0,0.5],[1,0.5]];portConstraint=eastwest;html=1;swimlaneFillColor=#ffffff;whiteSpace=wrap;fontSize=13;align=center;fillColor=none;strokeOpacity=100;fillOpacity=100;" vertex="1" parent="G_DCx-D-8qYPFaXEgxUm-54">
          <mxGeometry y="126" width="30" height="24" as="geometry" />
        </mxCell>
        <mxCell id="G_DCx-D-8qYPFaXEgxUm-64" value="date" style="shape=partialRectangle;top=0;right=0;bottom=0;part=1;resizeHeight=0;verticalAlign=top;spacingLeft=4;spacingRight=4;overflow=hidden;rotatable=0;points=[[0,0.5],[1,0.5]];portConstraint=eastwest;html=1;swimlaneFillColor=#ffffff;whiteSpace=wrap;fontSize=13;align=center;fillColor=none;strokeOpacity=100;fillOpacity=100;" vertex="1" parent="G_DCx-D-8qYPFaXEgxUm-54">
          <mxGeometry x="30" y="126" width="120" height="24" as="geometry" />
        </mxCell>
        <mxCell id="G_DCx-D-8qYPFaXEgxUm-65" value="time" style="strokeColor=none;part=1;resizeHeight=0;verticalAlign=top;spacingLeft=4;spacingRight=4;overflow=hidden;rotatable=0;points=[[0,0.5],[1,0.5]];portConstraint=eastwest;html=1;swimlaneFillColor=#ffffff;whiteSpace=wrap;fontSize=13;align=center;fillColor=none;strokeOpacity=100;fillOpacity=100;" vertex="1" parent="G_DCx-D-8qYPFaXEgxUm-54">
          <mxGeometry y="150" width="30" height="24" as="geometry" />
        </mxCell>
        <mxCell id="G_DCx-D-8qYPFaXEgxUm-66" value="begin_time" style="shape=partialRectangle;top=0;right=0;bottom=0;part=1;resizeHeight=0;verticalAlign=top;spacingLeft=4;spacingRight=4;overflow=hidden;rotatable=0;points=[[0,0.5],[1,0.5]];portConstraint=eastwest;html=1;swimlaneFillColor=#ffffff;whiteSpace=wrap;fontSize=13;align=center;fillColor=none;strokeOpacity=100;fillOpacity=100;" vertex="1" parent="G_DCx-D-8qYPFaXEgxUm-54">
          <mxGeometry x="30" y="150" width="120" height="24" as="geometry" />
        </mxCell>
        <mxCell id="G_DCx-D-8qYPFaXEgxUm-67" value="tine" style="strokeColor=none;part=1;resizeHeight=0;verticalAlign=top;spacingLeft=4;spacingRight=4;overflow=hidden;rotatable=0;points=[[0,0.5],[1,0.5]];portConstraint=eastwest;html=1;swimlaneFillColor=#ffffff;whiteSpace=wrap;fontSize=13;align=center;fillColor=none;strokeOpacity=100;fillOpacity=100;" vertex="1" parent="G_DCx-D-8qYPFaXEgxUm-54">
          <mxGeometry y="174" width="30" height="24" as="geometry" />
        </mxCell>
        <mxCell id="G_DCx-D-8qYPFaXEgxUm-68" value="end_time" style="shape=partialRectangle;top=0;right=0;bottom=0;part=1;resizeHeight=0;verticalAlign=top;spacingLeft=4;spacingRight=4;overflow=hidden;rotatable=0;points=[[0,0.5],[1,0.5]];portConstraint=eastwest;html=1;swimlaneFillColor=#ffffff;whiteSpace=wrap;fontSize=13;align=center;fillColor=none;strokeOpacity=100;fillOpacity=100;" vertex="1" parent="G_DCx-D-8qYPFaXEgxUm-54">
          <mxGeometry x="30" y="174" width="120" height="24" as="geometry" />
        </mxCell>
        <mxCell id="G_DCx-D-8qYPFaXEgxUm-69" value="var" style="strokeColor=none;part=1;resizeHeight=0;verticalAlign=top;spacingLeft=4;spacingRight=4;overflow=hidden;rotatable=0;points=[[0,0.5],[1,0.5]];portConstraint=eastwest;html=1;swimlaneFillColor=#ffffff;whiteSpace=wrap;fontSize=13;align=center;fillColor=none;strokeOpacity=100;fillOpacity=100;" vertex="1" parent="G_DCx-D-8qYPFaXEgxUm-54">
          <mxGeometry y="198" width="30" height="24" as="geometry" />
        </mxCell>
        <mxCell id="G_DCx-D-8qYPFaXEgxUm-70" value="note" style="shape=partialRectangle;top=0;right=0;bottom=0;part=1;resizeHeight=0;verticalAlign=top;spacingLeft=4;spacingRight=4;overflow=hidden;rotatable=0;points=[[0,0.5],[1,0.5]];portConstraint=eastwest;html=1;swimlaneFillColor=#ffffff;whiteSpace=wrap;fontSize=13;align=center;fillColor=none;strokeOpacity=100;fillOpacity=100;" vertex="1" parent="G_DCx-D-8qYPFaXEgxUm-54">
          <mxGeometry x="30" y="198" width="120" height="24" as="geometry" />
        </mxCell>
        <mxCell id="G_DCx-D-8qYPFaXEgxUm-71" value="int" style="strokeColor=none;part=1;resizeHeight=0;verticalAlign=top;spacingLeft=4;spacingRight=4;overflow=hidden;rotatable=0;points=[[0,0.5],[1,0.5]];portConstraint=eastwest;html=1;swimlaneFillColor=#ffffff;whiteSpace=wrap;fontSize=13;align=center;fillColor=none;strokeOpacity=100;fillOpacity=100;" vertex="1" parent="G_DCx-D-8qYPFaXEgxUm-54">
          <mxGeometry y="222" width="30" height="24" as="geometry" />
        </mxCell>
        <mxCell id="G_DCx-D-8qYPFaXEgxUm-72" value="status_code" style="shape=partialRectangle;top=0;right=0;bottom=0;part=1;resizeHeight=0;verticalAlign=top;spacingLeft=4;spacingRight=4;overflow=hidden;rotatable=0;points=[[0,0.5],[1,0.5]];portConstraint=eastwest;html=1;swimlaneFillColor=#ffffff;whiteSpace=wrap;fontSize=13;align=center;fillColor=none;strokeOpacity=100;fillOpacity=100;" vertex="1" parent="G_DCx-D-8qYPFaXEgxUm-54">
          <mxGeometry x="30" y="222" width="120" height="24" as="geometry" />
        </mxCell>
        <UserObject label="" lucidchartObjectId="Sg9WhB.u1qBI" id="G_DCx-D-8qYPFaXEgxUm-73">
          <mxCell style="html=1;jettySize=18;whiteSpace=wrap;fontSize=13;strokeColor=#333333;strokeOpacity=100;strokeWidth=0.8;rounded=1;arcSize=24;edgeStyle=orthogonalEdgeStyle;startArrow=ERone;startSize=16;endArrow=ERmany;endSize=10;exitX=1.003;exitY=0.524;exitPerimeter=0;entryX=-0.003;entryY=0.379;entryPerimeter=0;" edge="1" parent="1" source="G_DCx-D-8qYPFaXEgxUm-11" target="G_DCx-D-8qYPFaXEgxUm-41">
            <mxGeometry width="100" height="100" relative="1" as="geometry">
              <Array as="points" />
            </mxGeometry>
          </mxCell>
        </UserObject>
        <UserObject label="" lucidchartObjectId="Qh9WZBfsTk_B" id="G_DCx-D-8qYPFaXEgxUm-74">
          <mxCell style="html=1;jettySize=18;whiteSpace=wrap;fontSize=13;strokeColor=#333333;strokeOpacity=100;strokeWidth=0.8;rounded=1;arcSize=24;edgeStyle=orthogonalEdgeStyle;startArrow=ERone;startSize=16;endArrow=ERmany;endSize=10;exitX=0.5;exitY=1.003;exitPerimeter=0;entryX=-0.002;entryY=0.659;entryPerimeter=0;" edge="1" parent="1" source="G_DCx-D-8qYPFaXEgxUm-11" target="G_DCx-D-8qYPFaXEgxUm-54">
            <mxGeometry width="100" height="100" relative="1" as="geometry">
              <Array as="points" />
            </mxGeometry>
          </mxCell>
        </UserObject>
      </root>
    </mxGraphModel>
  </diagram>
</mxfile>
